<svg width="30" height="29" viewBox="0 0 30 29" fill="none" xmlns="http://www.w3.org/2000/svg">
<path d="M24.2563 0H4.8576C2.17536 0 0 2.16606 0 4.83684V24.1632C0 26.8339 2.17536 29 4.8576 29H4.88928C7.13856 28.9895 9.0288 27.4543 9.56736 25.3724C9.98976 25.7614 10.465 26.0874 10.993 26.3503C11.8589 26.7709 12.7565 26.9811 13.6858 26.9811C14.1398 26.9811 14.5939 26.9286 15.0586 26.8129C15.5232 26.7078 15.935 26.5395 16.3046 26.3187C16.6742 26.0979 16.9699 25.8245 17.2022 25.488C17.424 25.1516 17.5402 24.752 17.5402 24.2893C17.5402 23.5112 17.2445 22.9014 16.6637 22.4598C16.0829 22.0076 15.3437 21.6291 14.4672 21.3136C13.5907 20.9982 12.6298 20.6827 11.6054 20.3673C10.5811 20.0519 9.63072 19.6313 8.74368 19.095C7.8672 18.5587 7.128 17.8648 6.5472 16.992C5.9664 16.1193 5.67072 14.9732 5.67072 13.5431C5.67072 12.1657 5.93472 10.9565 6.47328 9.91552C7.01184 8.87455 7.71936 8.00181 8.61696 7.30783C9.51456 6.60334 10.5389 6.07759 11.711 5.7306C12.8726 5.38361 14.0765 5.20486 15.3226 5.20486C16.7482 5.20486 18.1315 5.41516 19.4621 5.82524C20.3914 6.10914 21.2573 6.54025 22.0704 7.09753L22.081 7.10805C22.4189 7.34989 22.7568 7.61276 23.0736 7.89666L19.2826 13.2698C19.2826 13.2698 18.2688 9.78934 13.9603 10.578C13.5274 10.6726 13.1261 10.8303 12.7459 11.0301C12.3658 11.2404 12.0595 11.5033 11.8166 11.8503C11.5738 12.1867 11.4576 12.5968 11.4576 13.0805C11.4576 13.8586 11.7427 14.4474 12.313 14.8575C12.8832 15.2676 13.6013 15.6146 14.4778 15.909C15.3437 16.2034 16.2835 16.4873 17.2867 16.7817C18.2899 17.0761 19.2192 17.4862 20.0957 18.012C20.9616 18.5482 21.6902 19.2527 22.2605 20.157C22.8307 21.0508 23.1158 22.2495 23.1158 23.7531C23.1158 25.1831 22.8518 26.4239 22.3344 27.4859C22.0598 28.0326 21.743 28.5373 21.3734 28.9895H24.2669C26.9491 28.9895 29.1245 26.8234 29.1245 24.1526V4.83684C29.1139 2.16606 26.9386 0 24.2563 0Z" fill="white"/>
</svg>
